<svg viewBox="0 0 128 128" xmlns="http://www.w3.org/2000/svg">
<path d="M105.917 57.6549C105.657 58.5606 105.368 59.4578 105.053 60.3383C104.722 61.2649 104.366 62.1748 103.976 63.072L90.9321 62.7995C90.9321 63.0636 90.9321 63.3236 90.9237 63.5877L126.378 64.3298C126.424 62.2377 126.369 60.1497 126.206 58.0784L105.913 57.6549H105.917Z" fill="white"/>
<path d="M78.5466 1.59325L78.1902 2.47793C80.1566 3.21586 82.0601 4.09215 83.8924 5.08584L71.2763 36.3598C72.0436 36.5946 72.8109 36.8671 73.5698 37.1732C73.6075 37.19 73.6452 37.2025 73.6788 37.2193L86.9405 4.33952C86.9028 4.32275 86.8651 4.31017 86.8315 4.2934C84.0978 3.1907 81.3306 2.29345 78.5466 1.59325Z" fill="white"/>
<path d="M91.2297 10.0585C92.8104 11.3708 94.303 12.788 95.695 14.3016L77.6954 39.2486C78.3243 39.6343 78.9364 40.041 79.5234 40.4687L100.274 11.7146C98.0471 10.1046 95.695 8.62454 93.2254 7.29542L91.2297 10.0627V10.0585Z" fill="white"/>
<path d="M100.756 20.9346C101.829 22.6452 102.789 24.4313 103.632 26.2846L83.1795 43.6553C83.6072 44.0997 84.0181 44.5567 84.4164 45.0305L111.443 22.075C109.77 20.096 107.971 18.2135 106.051 16.4399L100.76 20.9346H100.756Z" fill="white"/>
<path d="M116.194 28.4815L106.185 33.4709C106.688 35.387 107.07 37.3535 107.322 39.3618L87.3724 49.3071C87.6155 49.7431 87.8503 50.1834 88.0684 50.6278L119.795 34.8126C118.718 32.6366 117.514 30.5234 116.189 28.4815H116.194Z" fill="white"/>
<path d="M107.67 46.1038C107.628 48.0912 107.456 50.0534 107.162 51.9737L90.0138 55.8227C90.1102 56.1917 90.2024 56.5606 90.2821 56.9338L124.877 49.1688C124.382 46.9634 123.774 44.7873 123.049 42.649L107.67 46.0997V46.1038Z" fill="white"/>
<path d="M125.443 73.8056L101.8 67.4493C100.911 69.0132 99.9339 70.5268 98.8731 71.9691L90.1018 69.6128C90.0515 69.8098 90.0012 70.0027 89.9467 70.1998L124.185 79.4029C124.692 77.5413 125.107 75.6755 125.439 73.8014L125.443 73.8056Z" fill="white"/>
<path d="M96.2023 75.2772C95.1205 76.4973 93.9717 77.6587 92.7642 78.753L87.6658 75.9397C87.5861 76.0906 87.5023 76.2416 87.4184 76.3925L118.462 93.52C119.296 92.0064 120.076 90.4509 120.797 88.8493L96.1981 75.2772H96.2023Z" fill="white"/>
<path d="M89.8041 81.2267C88.6385 82.1198 87.4268 82.9542 86.1774 83.734L83.7665 81.5077C83.6785 81.6083 83.5862 81.7047 83.494 81.8054L109.54 105.868C110.605 104.723 111.628 103.532 112.609 102.3L89.8041 81.2309V81.2267Z" fill="white"/>
<path d="M101.33 113.285L83.016 85.5285C82.2907 85.9017 81.5569 86.2539 80.8106 86.5893C80.8106 86.5893 79.4647 87.1679 79.1587 87.2937L97.9046 115.7C99.0744 114.933 100.215 114.127 101.334 113.285H101.33Z" fill="white"/>
<path d="M76.0476 88.409C75.7373 88.5054 73.7709 89.0756 73.1881 89.2182C73.1881 89.2182 72.6389 89.3524 72.4879 89.3859L84.2487 122.463C85.4059 122.052 86.5505 121.612 87.6826 121.134L76.0476 88.4048V88.409Z" fill="white"/>
<path d="M68.9787 90.0149C67.9473 90.2371 66.9033 90.3964 65.8467 90.5012L69.3854 125.783C70.4378 125.679 71.486 125.549 72.5258 125.394L68.9787 90.0191V90.0149Z" fill="white"/>
<path d="M61.8047 90.5934C60.9242 90.5473 60.0438 90.4634 59.1633 90.3335L54.1529 125.44C55.0292 125.565 55.9097 125.674 56.786 125.767L61.8047 90.5976V90.5934Z" fill="white"/>
<path d="M20.4765 68.1285C20.7365 67.2229 21.0258 66.3256 21.3402 65.4452C21.6715 64.5185 22.0279 63.6087 22.4178 62.7115L35.4615 62.984C35.4615 62.7198 35.4615 62.4599 35.4699 62.1958L0.0157544 61.4536C-0.0303661 63.5458 0.02414 65.6338 0.187658 67.7051L20.4807 68.1285H20.4765Z" fill="white"/>
<path d="M47.8511 124.19L48.2075 123.305C46.2411 122.568 44.3376 121.691 42.5053 120.698L55.1214 89.4236C54.3541 89.1888 53.5869 88.9163 52.828 88.6102C52.7902 88.5934 52.7525 88.5809 52.7189 88.5641L39.4572 121.444C39.4949 121.461 39.5327 121.473 39.5662 121.49C42.2999 122.593 45.0671 123.49 47.8511 124.19Z" fill="white"/>
<path d="M35.1639 115.725C33.5832 114.413 32.0905 112.995 30.6985 111.482L48.6982 86.5348C48.0692 86.1491 47.4571 85.7424 46.8701 85.3147L26.12 114.069C28.3464 115.679 30.6985 117.159 33.1681 118.488L35.1639 115.721V115.725Z" fill="white"/>
<path d="M25.6378 104.849C24.5645 103.138 23.6043 101.352 22.7616 99.4989L43.214 82.1282C42.7863 81.6838 42.3754 81.2268 41.9771 80.753L14.9504 103.708C16.6234 105.687 18.4221 107.57 20.3424 109.344L25.6337 104.849H25.6378Z" fill="white"/>
<path d="M10.2042 97.3019L20.2124 92.3125C19.7092 90.3964 19.3277 88.43 19.0761 86.4216L39.0254 76.4763C38.7822 76.0403 38.5474 75.6001 38.3294 75.1556L6.59841 90.9708C7.67595 93.1468 8.87928 95.26 10.2042 97.3019Z" fill="white"/>
<path d="M18.7239 79.6797C18.7658 77.6923 18.9377 75.73 19.2312 73.8098L36.3797 69.9608C36.2833 69.5918 36.191 69.2229 36.1113 68.8497L1.51671 76.6105C2.01146 78.8159 2.61941 80.992 3.34476 83.1303L18.7281 79.6797H18.7239Z" fill="white"/>
<path d="M0.950746 51.9779L24.5938 58.3342C25.4827 56.7703 26.4596 55.2567 27.5204 53.8144L36.2917 56.1707C36.342 55.9736 36.3923 55.7808 36.4468 55.5837L2.20439 46.3764C1.69706 48.2379 1.28198 50.1037 0.950746 51.9779Z" fill="white"/>
<path d="M30.1912 50.5062C31.273 49.2861 32.4218 48.1247 33.6293 47.0304L38.7277 49.8438C38.8074 49.6929 38.8913 49.5419 38.9751 49.391L7.93176 32.2593C7.0974 33.7729 6.31754 35.3284 5.59638 36.93L30.1954 50.5021L30.1912 50.5062Z" fill="white"/>
<path d="M36.5936 44.5567C37.7592 43.6636 38.9709 42.8292 40.2203 42.0494L42.6312 44.2757C42.7192 44.1751 42.8115 44.0787 42.9037 43.9781L16.8582 19.9157C15.7932 21.0603 14.7702 22.2511 13.789 23.4837L36.5936 44.5525V44.5567Z" fill="white"/>
<path d="M25.0676 12.4987L43.3817 40.2549C44.107 39.8817 44.8408 39.5295 45.5871 39.1941C45.5871 39.1941 46.933 38.6155 47.2391 38.4897L28.4973 10.0836C27.3275 10.8509 26.1871 11.6559 25.0676 12.4987Z" fill="white"/>
<path d="M50.3459 37.3745C50.6562 37.278 52.6226 36.7078 53.2054 36.5653C53.2054 36.5653 53.7547 36.4311 53.9056 36.3976L42.1448 3.3207C40.9876 3.73159 39.843 4.17184 38.711 4.64981L50.3459 37.3787V37.3745Z" fill="white"/>
<path d="M57.415 35.7686C58.4464 35.5464 59.4904 35.3871 60.547 35.2823L57.0125 0C55.9601 0.10482 54.9119 0.234796 53.8721 0.389929L57.4192 35.7644L57.415 35.7686Z" fill="white"/>
<path d="M64.593 35.19C65.4735 35.2361 66.354 35.32 67.2345 35.4499L72.2407 0.343773C71.3644 0.21799 70.4839 0.108978 69.6076 0.0167363L64.5888 35.1858L64.593 35.19Z" fill="white"/>
</svg>
